<?xml version="1.0" encoding="UTF-8"?>
<svg width="752pt" height="752pt" version="1.1" viewBox="0 0 752 752" xmlns="http://www.w3.org/2000/svg">
 <g fill="#fff">
  <path d="m311.59 302.6c0 28.246-22.898 51.145-51.145 51.145-28.25 0-51.148-22.898-51.148-51.145 0-28.25 22.898-51.148 51.148-51.148 28.246 0 51.145 22.898 51.145 51.148"/>
  <path d="m337.64 367.48h-99.453c-25.574 0-46.883 19.418-49.727 44.516l-6.6289 61.094c-0.47266 6.1562 3.3164 11.367 9.4727 12.785 6.6289 1.4219 15.156 2.3672 24.625 3.3164l5.6836 97.086c0.47266 8.0508 7.1055 14.68 15.156 14.68h46.883c8.0508 0 14.68-6.1562 15.156-14.68l8.0508-166.7c0-8.5234 7.1055-15.156 15.156-15.156h15.156l-0.003906-36.941z"/>
  <path d="m570.17 166.2c-80.035-33.152-123.13 26.52-197.96 5.6836v-11.84c0-5.2109-4.2617-8.9961-8.9961-8.9961-5.2109 0-8.9961 4.2617-8.9961 8.9961v417.23h-9.9453c-10.418 0-18.469 8.5234-18.469 18.469 0 2.8398 2.3672 4.7344 4.7344 4.7344h65.828c2.8398 0 4.7344-2.3672 4.7344-4.7344 0-10.418-8.5234-18.469-18.469-18.469h-9.9453v-172.38h17.52c3.3164 0 5.6836-1.8945 7.1055-4.7344l8.5234-22.73c1.8945-4.7344-1.8945-9.9453-7.1055-9.9453h-26.992v-46.41c75.301 20.832 117.92-38.84 198.43-5.6875v-149.18zm-69.613 35.52c0-0.47266 0-0.47266 0.47266-0.47266h0.47266c1.4219 1.8945 1.8945 2.3672 3.3164 4.2617 2.3672-0.47266 3.3164-0.94531 5.6836-1.4219 0.47266 0 0.47266 0 0.47266 0.47266v0.47266c-1.4219 1.8945-1.8945 2.8398-3.3164 4.7344 0.94531 1.8945 1.4219 2.8398 2.3672 4.7344v0.47266s-0.47266 0.47266-0.47266 0c-1.8945-0.47266-3.3164-0.94531-5.2109-1.4219-1.4219 1.8945-2.3672 2.8398-4.2617 4.2617h-0.47266-0.47266l-0.47266-0.47266v-5.6836c-1.8945-0.94531-2.8398-1.4219-4.7344-1.8945l-0.47266-0.47266c0-0.47266 0-0.47266 0.47266-0.47266 2.3672-0.94531 3.3164-1.4219 5.2109-2.3672 0.94141-0.94141 0.94141-2.3633 1.418-4.7305zm-23.207-1.418c1.4219-1.8945 2.3672-2.8398 3.7891-4.7344-0.94531-1.8945-0.94531-2.8398-1.8945-4.7344v-0.47266s0.47266-0.47266 0.47266 0c1.8945 0.47266 2.8398 0.94531 5.2109 1.4219 1.8945-1.8945 2.8398-2.3672 4.2617-4.2617 0 0 0.47266-0.47266 0.47266 0l0.47266 0.47266c-0.47266 2.3672-0.47266 3.3164-0.94531 5.6836 1.8945 0.94531 2.8398 1.4219 4.7344 2.3672l0.47266 0.47266c0 0.47266 0 0.47266-0.47266 0.47266-2.3672 0.94531-3.3164 0.94531-5.6836 1.8945-0.47266 2.3672-0.94531 3.3164-1.4219 5.6836 0 0.47266-0.47266 0.47266-0.47266 0.47266h-0.47266c-0.94531-1.8945-1.4219-2.8398-2.8398-4.2617-1.8945-0.003906-2.8438-0.003906-5.2109 0.46875-0.47266 0-0.47266 0-0.47266-0.47266v-0.47266zm-62.984 19.887h5.6836c1.4219-1.8945 1.8945-2.8398 3.3164-5.2109l0.47266-0.47266s0.47266 0 0.47266 0.47266c0.47266 2.3672 0.47266 3.3164 0.94531 5.2109 2.3672 0.47266 3.3164 0.47266 5.2109 0.94531 0 0 0.47266 0 0.47266 0.47266s0 0.47266-0.47266 0.47266c-1.8945 1.4219-2.8398 1.8945-4.7344 3.3164v5.6836c0 0.47266 0 0.47266-0.47266 0.47266h-0.47266-0.47266c-1.4219-1.4219-2.3672-1.8945-4.2617-3.3164-1.8945 0.94531-3.3164 1.4219-5.2109 2.3672h-0.47266v-0.47266c0.94531-1.8945 1.4219-3.3164 2.3672-5.2109-1.4219-1.4219-1.8945-2.3672-3.3164-4.2617v-0.47266c0.46875 0.48047 0.94531 0.003906 0.94531 0.003906zm-1.4219 37.414c-0.47266 0-0.47266-0.47266-0.47266-0.47266 0-2.3672-0.47266-3.3164-0.47266-5.6836-1.8945-0.94531-3.3164-0.94531-5.2109-1.8945 0 0-0.47266-0.47266-0.47266-0.47266 0-0.47266 0-0.47266 0.47266-0.47266 1.8945-0.94531 3.3164-1.4219 5.2109-2.3672 0-2.3672 0.47266-3.3164 0.47266-5.6836 0 0 0-0.47266 0.47266-0.47266h0.47266c1.4219 1.4219 2.3672 2.3672 3.7891 3.7891 2.3672-0.94531 3.3164-0.94531 5.6836-1.8945h0.47266v0.47266c-0.94531 1.8945-1.8945 3.3164-2.8398 5.2109 0.94531 1.8945 1.8945 2.8398 2.8398 4.2617v0.47266l-0.47266 0.47266c-2.3672-0.47266-3.3164-0.47266-5.6836-0.47266-1.4219 2.3672-2.3672 3.3125-4.2617 5.207 0.47266 0 0 0 0 0zm11.367 22.258c0 0.47266 0 0.47266-0.47266 0.47266h-0.47266c-1.4219-1.8945-1.8945-2.3672-3.3164-4.2617-2.3672 0.47266-3.3164 0.94531-5.6836 1.4219-0.47266 0-0.47266 0-0.47266-0.47266v-0.47266c1.4219-1.8945 1.8945-2.8398 3.3164-4.7344-0.94531-1.8945-1.4219-2.8398-2.3672-4.7344v-0.47266s0.47266-0.47266 0.47266 0c1.8945 0.47266 3.3164 0.94531 5.2109 1.4219 1.4219-1.8945 2.3672-2.8398 4.2617-4.2617 0 0 0.47266-0.47266 0.47266 0l0.47266 0.47266v5.6836c1.8945 0.94531 2.8398 1.4219 4.7344 1.8945 0 0 0.47266 0.47266 0.47266 0.47266 0 0.47266 0 0.47266-0.47266 0.47266-2.3672 0.94531-3.3164 1.4219-5.2109 2.3672-0.47266 0.94141-0.47266 2.3633-0.94531 4.7305zm23.203 1.4219c-1.4219 1.8945-2.3672 2.8398-3.7891 4.7344 0.94531 1.8945 0.94531 2.8398 1.8945 4.7344v0.47266s-0.47266 0.47266-0.47266 0c-1.8945-0.47266-2.8398-0.94531-5.2109-1.4219-1.8945 1.8945-2.8398 2.3672-4.2617 4.2617h-0.47266-0.47266l-0.47266-0.47266c0.47266-2.3672 0.47266-3.3164 0.94531-5.6836-1.8945-0.94531-2.8398-1.4219-4.7344-2.3672 0 0-0.47266-0.47266-0.47266-0.47266 0-0.47266 0-0.47266 0.47266-0.47266 2.3672-0.94531 3.3164-0.94531 5.6836-1.8945 0.47266-2.3672 0.94531-3.3164 1.4219-5.6836 0-0.47266 0.47266-0.47266 0.47266-0.47266h0.47266c0.94531 1.8945 1.4219 2.8398 2.8398 4.2617 2.3672-0.47266 3.3164-0.47266 5.6836-1.4219 0 0 0.47266 0 0.47266 0.47266v1.4258zm-0.47266-73.879c-2.3672 0.47266-3.3164 0.47266-5.6836 0.94531-0.94531 2.3672-1.4219 3.3164-2.8398 5.2109l-0.47266 0.47266c-0.47266 0-0.47266 0-0.47266-0.47266-0.47266-1.8945-0.94531-2.8398-1.4219-5.2109h-5.6836s-0.47266 0-0.47266-0.47266c0 0 0-0.47266 0.47266-0.47266 1.8945-1.4219 2.8398-2.3672 4.7344-3.7891-0.47266-2.3672-0.47266-3.3164-0.94531-5.6836 0 0 0-0.47266 0.47266-0.47266h0.47266c1.8945 0.94531 2.8398 1.4219 4.2617 2.8398 1.8945-1.4219 2.8398-1.8945 5.2109-3.3164h0.47266s0.47266 0.47266 0 0.47266c-0.94531 2.3672-0.94531 3.3164-1.8945 5.6836 1.4219 1.4219 2.3672 1.8945 3.7891 3.3164v0.47266c0.47266 0.47656 0 0.47656 0 0.47656zm23.68 81.93c-2.3672 0.47266-3.3164 0.94531-5.6836 1.4219-0.94531 2.3672-1.4219 3.3164-2.3672 5.6836 0 0.47266-0.47266 0.47266-0.47266 0.47266-0.47266 0-0.47266 0-0.47266-0.47266-0.94531-1.8945-1.4219-2.8398-2.3672-4.7344-2.3672 0.47266-3.3164 0.47266-5.6836 0.47266-0.47266 0-0.47266 0-0.47266-0.47266v-0.47266c1.8945-1.8945 2.3672-2.8398 4.2617-4.7344-0.47266-1.8945-0.94531-3.3164-1.4219-5.2109v-0.47266s0.47266-0.47266 0.47266 0c1.8945 0.94531 2.8398 0.94531 4.7344 1.8945 1.8945-1.4219 2.8398-2.3672 4.7344-3.7891h0.47266s0.47266 0.47266 0 0.47266c-0.47266 2.3672-0.94531 3.3164-1.4219 5.6836 1.8945 0.94531 2.3672 1.8945 4.2617 2.8398 0 0 0.47266 0.47266 0 0.47266 1.8984 0.47266 1.4258 0.94531 1.4258 0.94531zm0.47266-99.453c-1.8945 1.8945-2.3672 2.8398-4.2617 4.7344 0.47266 1.8945 0.94531 3.3164 1.4219 5.2109v0.47266s-0.47266 0.47266-0.47266 0c-1.8945-0.94531-2.8398-0.94531-4.7344-1.8945-1.8945 1.4219-2.8398 2.3672-4.7344 3.7891h-0.47266-0.47266s-0.47266-0.47266 0-0.47266c0.47266-2.3672 0.94531-3.3164 1.4219-5.6836-1.8945-0.94531-2.3672-1.8945-4.2617-2.8398 0 0-0.47266-0.47266 0-0.47266 0-0.47266 0.47266-0.47266 0.47266-0.47266 2.3672-0.47266 3.3164-0.94531 5.6836-1.4219 0.94531-2.3672 1.4219-3.3164 2.3672-5.6836 0-0.47266 0.47266-0.47266 0.47266-0.47266 0.47266 0 0.47266 0 0.47266 0.47266 0.94531 1.8945 1.4219 2.8398 2.3672 4.7344 2.3672-0.47266 3.3164-0.47266 5.6836-0.47266 0.47266 0 0.47266 0 0.47266 0.47266-1.4258-0.47266-1.4258 0-1.4258 0zm23.207 84.297c-1.8945 1.4219-2.8398 2.3672-4.7344 3.7891 0.47266 2.3672 0.47266 3.3164 0.94531 5.6836 0 0.47266 0 0.47266-0.47266 0.47266h-0.47266-0.47266c-1.8945-0.94531-2.8398-1.4219-4.2617-2.8398-1.8945 1.4219-2.8398 1.8945-5.2109 3.3164h-0.47266s-0.47266-0.47266 0-0.47266c0.94531-2.3672 0.94531-3.3164 1.8945-5.6836-1.4219-1.4219-2.3672-1.8945-3.7891-3.3164v-0.47266l0.47266-0.47266c2.3672-0.47266 3.3164-0.47266 5.6836-0.94531 0.94531-2.3672 1.4219-3.3164 2.8398-5.2109l0.47266-0.47266c0.47266 0 0.47266 0 0.47266 0.47266 0.47266 1.8945 0.94531 2.8398 1.4219 5.2109h5.6836c0.47266 0 0.47266 0 0.47266 0.47266 0-0.003907 0-0.003907-0.47266 0.46875zm16.102-12.785h-5.6836c-1.4219 1.8945-1.8945 2.8398-3.3164 5.2109l-0.47266 0.47266s-0.47266 0-0.47266-0.47266c-0.47266-2.3672-0.47266-3.3164-0.94531-5.2109-2.3672-0.47266-3.3164-0.47266-5.2109-0.94531 0 0-0.47266 0-0.47266-0.47266 0 0 0-0.47266 0.47266-0.47266 1.8945-1.4219 2.8398-1.8945 4.7344-3.3164v-5.6836c0-0.47266 0-0.47266 0.47266-0.47266h0.47266c1.4219 1.4219 2.3672 1.8945 4.2617 3.3164 1.8945-0.94531 3.3164-1.4219 5.2109-2.3672h0.47266v0.47266c-0.94531 1.8945-1.4219 3.3164-2.3672 5.2109 1.4219 1.4219 1.8945 2.3672 3.3164 4.2617v0.47266c0-0.47656-0.47266-0.003907-0.47266-0.003907zm7.5742-28.414c-1.8945 0.94531-3.3164 1.4219-5.2109 2.3672 0 2.3672-0.47266 3.3164-0.47266 5.6836 0 0.47266 0 0.47266-0.47266 0.47266h-0.47266c-1.4219-1.4219-2.3672-2.3672-3.7891-3.7891-2.3672 0.94531-3.3164 0.94531-5.6836 1.8945h-0.47266v-0.47266c0.94531-1.8945 1.8945-3.3164 2.8398-5.2109-0.94531-1.8945-1.8945-2.8398-2.8398-4.2617v-0.47266l0.47266-0.47266c2.3672 0.47266 3.3164 0.47266 5.6836 0.47266 1.4219-1.8945 2.3672-2.8398 3.7891-4.7344 0 0 0.47266-0.47266 0.47266 0 0 0 0.47266 0.47266 0.47266 0.47266 0 2.3672 0.47266 3.3164 0.47266 5.6836 1.8945 0.94531 3.3164 0.94531 5.2109 1.8945 0 0 0.47266 0.47266 0.47266 0.47266 0.003906-0.47266 0.003906 0-0.47266 0z"/>
 </g>
</svg>
